<mxfile host="65bd71144e">
    <diagram id="Fi7aWg9IcYl-worzeulP" name="Page-1">
        <mxGraphModel dx="1386" dy="1778" grid="1" gridSize="10" guides="1" tooltips="1" connect="1" arrows="1" fold="1" page="1" pageScale="1" pageWidth="850" pageHeight="1100" math="0" shadow="0">
            <root>
                <mxCell id="0"/>
                <mxCell id="1" parent="0"/>
                <mxCell id="4" style="edgeStyle=none;html=1;exitX=1;exitY=0.5;exitDx=0;exitDy=0;" parent="1" source="2" edge="1">
                    <mxGeometry relative="1" as="geometry">
                        <mxPoint x="440" y="315" as="targetPoint"/>
                    </mxGeometry>
                </mxCell>
                <mxCell id="2" value="" style="rounded=0;whiteSpace=wrap;html=1;" parent="1" vertex="1">
                    <mxGeometry y="-50" width="800" height="590" as="geometry"/>
                </mxCell>
                <mxCell id="5" value="" style="rounded=1;whiteSpace=wrap;html=1;" parent="1" vertex="1">
                    <mxGeometry y="-60" width="800" height="60" as="geometry"/>
                </mxCell>
                <mxCell id="6" value="logo" style="text;html=1;align=center;verticalAlign=middle;whiteSpace=wrap;rounded=0;" parent="1" vertex="1">
                    <mxGeometry x="30" y="-45" width="60" height="30" as="geometry"/>
                </mxCell>
                <mxCell id="7" value="Text" style="text;html=1;align=center;verticalAlign=middle;whiteSpace=wrap;rounded=0;" parent="1" vertex="1">
                    <mxGeometry x="600" y="-45" width="60" height="30" as="geometry"/>
                </mxCell>
                <mxCell id="8" value="Text" style="text;html=1;align=center;verticalAlign=middle;whiteSpace=wrap;rounded=0;" parent="1" vertex="1">
                    <mxGeometry x="520" y="-45" width="60" height="30" as="geometry"/>
                </mxCell>
                <mxCell id="9" value="Text" style="text;html=1;align=center;verticalAlign=middle;whiteSpace=wrap;rounded=0;" parent="1" vertex="1">
                    <mxGeometry x="670" y="-45" width="60" height="30" as="geometry"/>
                </mxCell>
                <mxCell id="10" value="" style="triangle;whiteSpace=wrap;html=1;fillColor=#e1d5e7;strokeColor=#9673a6;direction=west;" parent="1" vertex="1">
                    <mxGeometry x="50" y="130" width="60" height="80" as="geometry"/>
                </mxCell>
                <mxCell id="11" value="" style="triangle;whiteSpace=wrap;html=1;rotation=-180;fillColor=#e1d5e7;strokeColor=#9673a6;direction=west;" parent="1" vertex="1">
                    <mxGeometry x="720" y="130" width="60" height="80" as="geometry"/>
                </mxCell>
                <mxCell id="12" value="Text" style="text;html=1;align=center;verticalAlign=middle;whiteSpace=wrap;rounded=0;" parent="1" vertex="1">
                    <mxGeometry x="50" y="270" width="60" height="30" as="geometry"/>
                </mxCell>
                <mxCell id="13" value="Text" style="text;html=1;align=center;verticalAlign=middle;whiteSpace=wrap;rounded=0;" parent="1" vertex="1">
                    <mxGeometry x="210" y="270" width="60" height="30" as="geometry"/>
                </mxCell>
                <mxCell id="14" value="Text" style="text;html=1;align=center;verticalAlign=middle;whiteSpace=wrap;rounded=0;" parent="1" vertex="1">
                    <mxGeometry x="130" y="270" width="60" height="30" as="geometry"/>
                </mxCell>
                <mxCell id="15" value="Text" style="text;html=1;align=center;verticalAlign=middle;whiteSpace=wrap;rounded=0;" parent="1" vertex="1">
                    <mxGeometry x="300" y="270" width="60" height="30" as="geometry"/>
                </mxCell>
                <mxCell id="16" value="" style="rounded=0;whiteSpace=wrap;html=1;fillColor=#ffe6cc;strokeColor=#d79b00;" parent="1" vertex="1">
                    <mxGeometry x="50" y="320" width="130" height="100" as="geometry"/>
                </mxCell>
                <mxCell id="17" value="&lt;h1 style=&quot;margin-top: 0px;&quot;&gt;Heading&lt;/h1&gt;&lt;p&gt;Lorem ipsum dolor sit amet, consectetur adipisicing elit, sed do eiusmod tempor incididunt ut labore et dolore magna aliqua.&lt;/p&gt;" style="text;html=1;whiteSpace=wrap;overflow=hidden;rounded=0;" parent="1" vertex="1">
                    <mxGeometry x="65" y="320" width="100" height="90" as="geometry"/>
                </mxCell>
                <mxCell id="18" value="" style="rounded=0;whiteSpace=wrap;html=1;fillColor=#ffe6cc;strokeColor=#d79b00;" parent="1" vertex="1">
                    <mxGeometry x="230" y="320" width="130" height="100" as="geometry"/>
                </mxCell>
                <mxCell id="19" value="&lt;h1 style=&quot;margin-top: 0px;&quot;&gt;Heading&lt;/h1&gt;&lt;p&gt;Lorem ipsum dolor sit amet, consectetur adipisicing elit, sed do eiusmod tempor incididunt ut labore et dolore magna aliqua.&lt;/p&gt;" style="text;html=1;whiteSpace=wrap;overflow=hidden;rounded=0;" parent="1" vertex="1">
                    <mxGeometry x="250" y="325" width="100" height="90" as="geometry"/>
                </mxCell>
                <mxCell id="23" value="" style="rounded=0;whiteSpace=wrap;html=1;fillColor=#ffe6cc;strokeColor=#d79b00;" parent="1" vertex="1">
                    <mxGeometry x="410" y="320" width="130" height="100" as="geometry"/>
                </mxCell>
                <mxCell id="24" value="&lt;h1 style=&quot;margin-top: 0px;&quot;&gt;Heading&lt;/h1&gt;&lt;p&gt;Lorem ipsum dolor sit amet, consectetur adipisicing elit, sed do eiusmod tempor incididunt ut labore et dolore magna aliqua.&lt;/p&gt;" style="text;html=1;whiteSpace=wrap;overflow=hidden;rounded=0;" parent="1" vertex="1">
                    <mxGeometry x="430" y="325" width="100" height="90" as="geometry"/>
                </mxCell>
                <mxCell id="25" value="" style="rounded=0;whiteSpace=wrap;html=1;fillColor=#ffe6cc;strokeColor=#d79b00;" parent="1" vertex="1">
                    <mxGeometry x="590" y="320" width="130" height="100" as="geometry"/>
                </mxCell>
                <mxCell id="26" value="&lt;h1 style=&quot;margin-top: 0px;&quot;&gt;Heading&lt;/h1&gt;&lt;p&gt;Lorem ipsum dolor sit amet, consectetur adipisicing elit, sed do eiusmod tempor incididunt ut labore et dolore magna aliqua.&lt;/p&gt;" style="text;html=1;whiteSpace=wrap;overflow=hidden;rounded=0;" parent="1" vertex="1">
                    <mxGeometry x="605" y="325" width="100" height="90" as="geometry"/>
                </mxCell>
                <mxCell id="27" value="" style="whiteSpace=wrap;html=1;aspect=fixed;" vertex="1" parent="1">
                    <mxGeometry y="600" width="800" height="800" as="geometry"/>
                </mxCell>
                <mxCell id="28" value="" style="rounded=1;whiteSpace=wrap;html=1;" vertex="1" parent="1">
                    <mxGeometry y="600" width="800" height="60" as="geometry"/>
                </mxCell>
                <mxCell id="29" value="Text" style="text;html=1;align=center;verticalAlign=middle;whiteSpace=wrap;rounded=0;" vertex="1" parent="1">
                    <mxGeometry x="720" y="615" width="60" height="30" as="geometry"/>
                </mxCell>
                <mxCell id="30" value="Text" style="text;html=1;align=center;verticalAlign=middle;whiteSpace=wrap;rounded=0;" vertex="1" parent="1">
                    <mxGeometry x="660" y="615" width="60" height="30" as="geometry"/>
                </mxCell>
                <mxCell id="31" value="Text" style="text;html=1;align=center;verticalAlign=middle;whiteSpace=wrap;rounded=0;" vertex="1" parent="1">
                    <mxGeometry x="600" y="615" width="60" height="30" as="geometry"/>
                </mxCell>
            </root>
        </mxGraphModel>
    </diagram>
</mxfile>